<?xml version="1.0" encoding="utf-8"?>
<svg version="1.1" id="Layer_1" xmlns="http://www.w3.org/2000/svg" x="0px" y="0px" width="100%" viewBox="0 0 348 343" enable-background="new 0 0 348 343">
  <path opacity="1.000000" stroke="none" d=" M240.000000,344.000000 C160.000015,344.000000 80.500031,344.000000 1.000032,344.000000 C1.000021,229.666702 1.000021,115.333405 1.000011,1.000078 C116.999947,1.000052 232.999893,1.000052 348.999878,1.000026 C348.999939,115.333260 348.999939,229.666519 348.999969,343.999878 C312.833344,344.000000 276.666656,344.000000 240.000000,344.000000 M155.546661,30.378252 C151.062424,31.369314 146.500198,32.096741 142.107269,33.396416 C121.488464,39.496613 103.982124,50.750034 90.842583,67.655930 C78.450836,83.599678 70.856041,101.636414 69.798141,122.431282 C68.943810,139.224869 71.053383,155.215225 78.709831,170.010742 C86.431946,184.933182 95.195839,199.325699 103.756737,213.800507 C107.325409,219.834427 111.549530,225.480713 115.999992,232.080948 C118.149475,229.618942 119.449821,227.222000 121.463394,226.008682 C125.900681,223.334930 130.500427,219.979691 135.392273,219.224670 C143.618774,217.954971 152.125076,218.285446 160.512161,218.318680 C172.978699,218.368073 185.468155,219.326355 197.902512,218.808777 C208.960205,218.348511 217.748337,221.476089 224.352203,230.428955 C224.689331,230.885986 225.455353,231.026688 226.146164,231.377975 C226.936264,230.536957 227.752106,229.916229 228.250610,229.101395 C238.322556,212.637634 248.314789,196.125015 258.412170,179.676941 C270.357910,160.217987 274.406311,138.843628 271.606689,116.609192 C268.281067,90.197044 255.301285,68.587784 234.632263,51.773335 C218.453827,38.612030 200.019608,30.855139 179.051620,29.831942 C171.372208,29.457203 163.662643,29.699774 155.546661,30.378252 M89.391937,315.388031 C89.393250,316.387604 89.398865,317.387177 89.395180,318.386719 C89.363976,326.848572 92.095131,329.697449 100.643822,329.949768 C103.805664,330.043152 106.976212,330.002167 110.138275,329.892456 C115.781570,329.696686 119.031258,326.692871 119.676712,321.175507 C119.824173,319.915039 119.867050,318.642334 119.955254,317.414337 C154.179337,317.414337 188.070419,317.414337 221.926712,317.414337 C222.766037,326.093262 224.427002,328.933044 229.862885,329.516602 C234.460297,330.010162 239.171661,330.053986 243.780762,329.671753 C249.540833,329.194031 252.582977,325.506744 252.609711,319.673370 C252.662369,308.182129 252.559845,296.690002 252.644318,285.199158 C252.692169,278.689270 250.736771,273.106445 245.608215,268.932587 C244.115112,267.717438 242.273773,266.930145 240.592056,265.946716 C241.073914,265.304352 241.555771,264.661987 242.037643,264.019623 C244.461960,263.681671 246.900208,263.421021 249.307343,262.987610 C252.876495,262.344879 256.071320,260.412415 255.938644,256.724640 C255.848175,254.210205 253.912933,250.127197 252.047058,249.640228 C247.701721,248.506104 242.751968,248.434830 238.359238,249.381393 C236.712051,249.736313 235.943909,254.112427 234.729996,256.633545 C234.618439,256.865234 234.178848,256.938965 233.147720,257.466888 C230.087616,252.819870 226.982300,248.071762 223.843979,243.345551 C218.357605,235.083206 212.882095,227.004684 201.219635,227.101608 C180.899887,227.270493 160.577621,227.109177 140.256699,227.175171 C134.056503,227.195297 128.585938,229.030121 124.820145,234.410950 C121.598206,239.014709 118.356483,243.605118 115.073845,248.165695 C112.809769,251.311218 110.461021,254.395782 108.150108,257.507599 C106.256943,248.981003 105.994003,248.756180 97.887947,248.772690 C96.388474,248.775757 94.888382,248.734741 93.389603,248.764999 C89.047363,248.852615 85.377884,251.616608 85.577110,255.484161 C85.750519,258.850403 87.624031,261.636688 91.438049,262.450012 C94.243195,263.048187 97.006615,263.842010 100.302162,264.679077 C98.998924,266.107086 98.209122,267.148743 97.248260,267.996460 C91.536087,273.036163 88.855995,279.124634 89.252144,286.936218 C89.715630,296.075836 89.381821,305.255890 89.391937,315.388031 z" style="fill-opacity: 0;"/>
  <path opacity="1.000000" stroke="none" d=" M155.756744,30.019497 C163.662643,29.699774 171.372208,29.457203 179.051620,29.831942 C200.019608,30.855139 218.453827,38.612030 234.632263,51.773335 C255.301285,68.587784 268.281067,90.197044 271.606689,116.609192 C274.406311,138.843628 270.357910,160.217987 258.412170,179.676941 C248.314789,196.125015 238.322556,212.637634 228.250610,229.101395 C227.752106,229.916229 226.936264,230.536957 226.146164,231.377975 C225.455353,231.026688 224.689331,230.885986 224.352203,230.428955 C217.748337,221.476089 208.960205,218.348511 197.902512,218.808777 C185.468155,219.326355 172.978699,218.368073 160.512161,218.318680 C152.125076,218.285446 143.618774,217.954971 135.392273,219.224670 C130.500427,219.979691 125.900681,223.334930 121.463394,226.008682 C119.449821,227.222000 118.149475,229.618942 115.999992,232.080948 C111.549530,225.480713 107.325409,219.834427 103.756737,213.800507 C95.195839,199.325699 86.431946,184.933182 78.709831,170.010742 C71.053383,155.215225 68.943810,139.224869 69.798141,122.431282 C70.856041,101.636414 78.450836,83.599678 90.842583,67.655930 C103.982124,50.750034 121.488464,39.496613 142.107269,33.396416 C146.500198,32.096741 151.062424,31.369314 155.756744,30.019497 M207.546463,95.076645 C199.635468,85.057343 189.167770,81.117401 176.599884,81.645142 C167.028793,82.047043 157.439026,82.016891 147.857117,82.142647 C143.907822,82.194481 139.957306,82.151230 135.676422,82.151230 C135.676422,115.663834 135.676422,148.688507 135.676422,182.417252 C141.256592,182.417252 146.699738,182.336731 152.138916,182.449066 C155.143417,182.511108 156.181137,181.336868 156.112015,178.298355 C155.934036,170.473114 156.307526,162.629929 155.960083,154.816147 C155.777328,150.706329 157.541016,149.469727 161.101318,149.508347 C164.577774,149.546066 168.069901,149.865601 171.526535,149.634140 C178.249969,149.183929 185.424789,149.761108 191.581146,147.573135 C214.650238,139.374344 218.946503,112.412827 207.546463,95.076645 z" style="fill: rgb(255, 255, 255);"/>
  <path opacity="1.000000" stroke="none" d=" M89.392914,314.903198 C89.381821,305.255890 89.715630,296.075836 89.252144,286.936218 C88.855995,279.124634 91.536087,273.036163 97.248260,267.996460 C98.209122,267.148743 98.998924,266.107086 100.302162,264.679077 C97.006615,263.842010 94.243195,263.048187 91.438049,262.450012 C87.624031,261.636688 85.750519,258.850403 85.577110,255.484161 C85.377884,251.616608 89.047363,248.852615 93.389603,248.764999 C94.888382,248.734741 96.388474,248.775757 97.887947,248.772690 C105.994003,248.756180 106.256943,248.981003 108.150108,257.507599 C110.461021,254.395782 112.809769,251.311218 115.073845,248.165695 C118.356483,243.605118 121.598206,239.014709 124.820145,234.410950 C128.585938,229.030121 134.056503,227.195297 140.256699,227.175171 C160.577621,227.109177 180.899887,227.270493 201.219635,227.101608 C212.882095,227.004684 218.357605,235.083206 223.843979,243.345551 C226.982300,248.071762 230.087616,252.819870 233.147720,257.466888 C234.178848,256.938965 234.618439,256.865234 234.729996,256.633545 C235.943909,254.112427 236.712051,249.736313 238.359238,249.381393 C242.751968,248.434830 247.701721,248.506104 252.047058,249.640228 C253.912933,250.127197 255.848175,254.210205 255.938644,256.724640 C256.071320,260.412415 252.876495,262.344879 249.307343,262.987610 C246.900208,263.421021 244.461960,263.681671 242.037643,264.019623 C241.555771,264.661987 241.073914,265.304352 240.592056,265.946716 C242.273773,266.930145 244.115112,267.717438 245.608215,268.932587 C250.736771,273.106445 252.692169,278.689270 252.644318,285.199158 C252.559845,296.690002 252.662369,308.182129 252.609711,319.673370 C252.582977,325.506744 249.540833,329.194031 243.780762,329.671753 C239.171661,330.053986 234.460297,330.010162 229.862885,329.516602 C224.427002,328.933044 222.766037,326.093262 221.926712,317.414337 C188.070419,317.414337 154.179337,317.414337 119.955254,317.414337 C119.867050,318.642334 119.824173,319.915039 119.676712,321.175507 C119.031258,326.692871 115.781570,329.696686 110.138275,329.892456 C106.976212,330.002167 103.805664,330.043152 100.643822,329.949768 C92.095131,329.697449 89.363976,326.848572 89.395180,318.386719 C89.398865,317.387177 89.393250,316.387604 89.392914,314.903198 M186.400742,283.898956 C174.111938,283.925995 161.821686,283.872131 149.536438,284.094513 C148.179779,284.119080 146.851700,285.723145 145.510361,286.594635 C146.480576,287.967377 147.210480,290.186615 148.468948,290.543823 C151.467392,291.394928 154.711060,291.585693 157.863632,291.649231 C165.168304,291.796539 172.477676,291.713745 179.785141,291.717834 C183.604950,291.719971 187.545471,292.267303 191.195984,291.478546 C193.155106,291.055298 194.615829,288.325287 196.301453,286.636200 C194.649948,285.721832 193.076691,284.582275 191.319626,283.971771 C190.134293,283.559967 188.689667,283.894440 186.400742,283.898956 M121.460960,279.996704 C117.540497,279.478455 113.632355,278.813629 109.696152,278.482452 C105.624039,278.139771 103.023987,280.056396 102.610603,284.260254 C102.214996,288.283447 105.268684,291.593536 109.484497,291.710632 C113.810135,291.830811 118.141548,291.727356 122.470085,291.763519 C127.734154,291.807495 128.840698,290.454346 128.521194,285.226562 C128.263718,281.013489 124.834381,281.201691 121.460960,279.996704 M218.977829,291.695343 C223.640869,291.708893 228.308746,291.858734 232.965485,291.693970 C236.881912,291.555420 239.565414,288.282257 239.389053,284.321472 C239.207367,280.240631 237.195358,278.260101 233.026215,278.793427 C227.954178,279.442261 222.882080,280.092651 217.817078,280.793518 C214.335770,281.275238 213.378738,283.457611 213.407059,286.777893 C213.435837,290.154816 214.746811,291.759430 218.977829,291.695343 z" style="fill: rgb(255, 255, 255);"/>
  <path fill="#030303" opacity="1.000000" stroke="none" d=" M207.737671,95.388016 C218.946503,112.412827 214.650238,139.374344 191.581146,147.573135 C185.424789,149.761108 178.249969,149.183929 171.526535,149.634140 C168.069901,149.865601 164.577774,149.546066 161.101318,149.508347 C157.541016,149.469727 155.777328,150.706329 155.960083,154.816147 C156.307526,162.629929 155.934036,170.473114 156.112015,178.298355 C156.181137,181.336868 155.143417,182.511108 152.138916,182.449066 C146.699738,182.336731 141.256592,182.417252 135.676422,182.417252 C135.676422,148.688507 135.676422,115.663834 135.676422,82.151230 C139.957306,82.151230 143.907822,82.194481 147.857117,82.142647 C157.439026,82.016891 167.028793,82.047043 176.599884,81.645142 C189.167770,81.117401 199.635468,85.057343 207.737671,95.388016 M170.480377,131.954315 C173.636932,131.947662 176.804291,132.106171 179.947861,131.900742 C186.986938,131.440781 193.098938,125.621925 193.853653,118.875710 C194.874771,109.748116 191.762711,102.312302 184.226669,101.200699 C175.094070,99.853600 165.611206,100.881104 156.360703,100.881104 C156.360703,111.241676 156.360703,121.473900 156.360703,131.954315 C160.944839,131.954315 165.217560,131.954315 170.480377,131.954315 z" style="fill-opacity: 0;"/>
  <path fill="#141414" opacity="1.000000" stroke="none" d=" M186.880890,283.897034 C188.689667,283.894440 190.134293,283.559967 191.319626,283.971771 C193.076691,284.582275 194.649948,285.721832 196.301453,286.636200 C194.615829,288.325287 193.155106,291.055298 191.195984,291.478546 C187.545471,292.267303 183.604950,291.719971 179.785141,291.717834 C172.477676,291.713745 165.168304,291.796539 157.863632,291.649231 C154.711060,291.585693 151.467392,291.394928 148.468948,290.543823 C147.210480,290.186615 146.480576,287.967377 145.510376,286.594666 C146.851700,285.723145 148.179779,284.119080 149.536438,284.094513 C161.821686,283.872131 174.111938,283.925995 186.880890,283.897034 z" style="fill-opacity: 0;"/>
  <path fill="#0D0D0D" opacity="1.000000" stroke="none" d=" M121.852959,280.063171 C124.834381,281.201691 128.263718,281.013489 128.521194,285.226562 C128.840698,290.454346 127.734154,291.807495 122.470085,291.763519 C118.141548,291.727356 113.810135,291.830811 109.484497,291.710632 C105.268684,291.593536 102.214996,288.283447 102.610603,284.260254 C103.023987,280.056396 105.624039,278.139771 109.696152,278.482452 C113.632355,278.813629 117.540497,279.478455 121.852959,280.063171 z" style="fill-opacity: 0;"/>
  <path fill="#0D0C0C" opacity="1.000000" stroke="none" d=" M218.536316,291.704010 C214.746811,291.759430 213.435837,290.154816 213.407059,286.777893 C213.378738,283.457611 214.335770,281.275238 217.817078,280.793518 C222.882080,280.092651 227.954178,279.442261 233.026215,278.793427 C237.195358,278.260101 239.207367,280.240631 239.389053,284.321472 C239.565414,288.282257 236.881912,291.555420 232.965485,291.693970 C228.308746,291.858734 223.640869,291.708893 218.536316,291.704010 z" style="fill-opacity: 0;"/>
  <path opacity="1.000000" stroke="none" d=" M169.985321,131.954315 C165.217560,131.954315 160.944839,131.954315 156.360703,131.954315 C156.360703,121.473900 156.360703,111.241676 156.360703,100.881104 C165.611206,100.881104 175.094070,99.853600 184.226669,101.200699 C191.762711,102.312302 194.874771,109.748116 193.853653,118.875710 C193.098938,125.621925 186.986938,131.440781 179.947861,131.900742 C176.804291,132.106171 173.636932,131.947662 169.985321,131.954315 z" style="fill: rgb(255, 255, 255);"/>
</svg>